<svg width="26" height="26" viewBox="0 0 26 26" fill="none" xmlns="http://www.w3.org/2000/svg">
<path d="M19.5 14.0833C19.807 14.0833 20.0644 13.9793 20.2724 13.7713C20.4804 13.5633 20.5841 13.3062 20.5834 13C20.5826 12.6938 20.4786 12.4367 20.2714 12.2287C20.0641 12.0207 19.807 11.9167 19.5 11.9167H16.25C15.9431 11.9167 15.686 12.0207 15.4787 12.2287C15.2714 12.4367 15.1674 12.6938 15.1667 13C15.166 13.3062 15.27 13.5637 15.4787 13.7724C15.6874 13.9811 15.9445 14.0848 16.25 14.0833H19.5ZM19.5 10.8333C19.807 10.8333 20.0644 10.7293 20.2724 10.5213C20.4804 10.3133 20.5841 10.0562 20.5834 9.75001C20.5826 9.44379 20.4786 9.18668 20.2714 8.97868C20.0641 8.77068 19.807 8.66668 19.5 8.66668H16.25C15.9431 8.66668 15.686 8.77068 15.4787 8.97868C15.2714 9.18668 15.1674 9.44379 15.1667 9.75001C15.166 10.0562 15.27 10.3137 15.4787 10.5224C15.6874 10.7311 15.9445 10.8348 16.25 10.8333H19.5ZM9.75002 14.0833C9.10002 14.0833 8.51322 14.1422 7.9896 14.2599C7.46599 14.3776 7.00558 14.5625 6.60835 14.8146C6.22919 15.0493 5.9403 15.3158 5.74169 15.6141C5.54308 15.9124 5.44377 16.2327 5.44377 16.575C5.44377 16.7917 5.52502 16.9722 5.68752 17.1167C5.85002 17.2611 6.04863 17.3333 6.28335 17.3333H13.2167C13.4514 17.3333 13.65 17.2564 13.8125 17.1026C13.975 16.9488 14.0563 16.7548 14.0563 16.5208C14.0563 16.2139 13.957 15.916 13.7584 15.6271C13.5597 15.3382 13.2709 15.0674 12.8917 14.8146C12.4945 14.5618 12.034 14.3766 11.5104 14.2588C10.9868 14.1411 10.4 14.0826 9.75002 14.0833ZM9.75002 13C10.3459 13 10.8557 12.788 11.2797 12.3641C11.7036 11.9401 11.916 11.4299 11.9167 10.8333C11.9174 10.2368 11.7054 9.7269 11.2808 9.30368C10.8561 8.88045 10.3459 8.66812 9.75002 8.66668C9.15419 8.66523 8.6443 8.87757 8.22035 9.30368C7.79641 9.72979 7.58408 10.2397 7.58335 10.8333C7.58263 11.427 7.79496 11.9373 8.22035 12.3641C8.64574 12.7909 9.15563 13.0029 9.75002 13ZM4.33335 21.6667C3.73752 21.6667 3.22763 21.4547 2.80369 21.0308C2.37974 20.6068 2.16741 20.0966 2.16669 19.5V6.50001C2.16669 5.90418 2.37902 5.39429 2.80369 4.97034C3.22835 4.5464 3.73824 4.33407 4.33335 4.33334H21.6667C22.2625 4.33334 22.7728 4.54568 23.1974 4.97034C23.6221 5.39501 23.8341 5.9049 23.8334 6.50001V19.5C23.8334 20.0958 23.6214 20.6061 23.1974 21.0308C22.7735 21.4554 22.2632 21.6674 21.6667 21.6667H4.33335Z" fill="#94A3B8"/>
</svg>
