<svg width="35" height="32" viewBox="0 0 35 32" fill="none" xmlns="http://www.w3.org/2000/svg">
<path d="M26.25 31.5C23.8292 31.5 21.7659 30.6466 20.0603 28.9398C18.3546 27.2329 17.5012 25.1697 17.5 22.75C17.4988 20.3303 18.3523 18.2671 20.0603 16.5603C21.7683 14.8534 23.8315 14 26.25 14C28.6685 14 30.7323 14.8534 32.4415 16.5603C34.1507 18.2671 35.0035 20.3303 35 22.75C34.9965 25.1697 34.1431 27.2335 32.4398 28.9415C30.7364 30.6495 28.6732 31.5023 26.25 31.5ZM26.6 23.625L30.5813 19.6438L29.3563 18.4187L25.375 22.4L26.6 23.625ZM0 12.25V3.5C0 2.5375 0.343 1.71383 1.029 1.029C1.715 0.344166 2.53867 0.00116667 3.5 0H31.5C32.4625 0 33.2868 0.343 33.9728 1.029C34.6588 1.715 35.0012 2.53867 35 3.5V14.175C33.8333 12.9792 32.4993 12.068 30.9978 11.4415C29.4963 10.815 27.9137 10.5012 26.25 10.5C25.1417 10.5 24.0847 10.6388 23.079 10.9165C22.0733 11.1942 21.1178 11.5803 20.2125 12.075L17.325 6.2125C17.1792 5.92083 16.9604 5.70208 16.6688 5.55625C16.3771 5.41042 16.0708 5.3375 15.75 5.3375C15.4292 5.3375 15.1229 5.41042 14.8313 5.55625C14.5396 5.70208 14.3208 5.92083 14.175 6.2125L8.75 17.1062L6.78125 13.2125C6.63542 12.9208 6.42367 12.6875 6.146 12.5125C5.86833 12.3375 5.56967 12.25 5.25 12.25H0ZM3.5 28C2.5375 28 1.71383 27.6576 1.029 26.9727C0.344167 26.2879 0.00116667 25.4637 0 24.5V15.75H4.15625L7.175 21.7875C7.32083 22.1083 7.53258 22.3493 7.81025 22.5103C8.08792 22.6713 8.40117 22.7512 8.75 22.75C9.07083 22.75 9.37008 22.6701 9.64775 22.5103C9.92542 22.3504 10.1366 22.1095 10.2813 21.7875L15.75 10.9375L17.4125 14.2625C16.3625 15.3708 15.5312 16.6472 14.9188 18.0915C14.3063 19.5358 14 21.0887 14 22.75C14 23.6542 14.0951 24.5513 14.2853 25.4415C14.4754 26.3317 14.7741 27.1845 15.1813 28H3.5Z" fill="#359AFF"/>
</svg>
