<svg width="26" height="26" viewBox="0 0 26 26" fill="none" xmlns="http://www.w3.org/2000/svg">
<path d="M8.93745 18.8337L7.31245 17.2079L6.16602 18.3536L8.93745 21.125L13.8125 16.25L12.6668 15.1044L8.93745 18.8337ZM22.75 24.375H19.5V22.75H22.75V13H19.5V6.5C19.4989 5.63838 19.1561 4.81235 18.5469 4.20309C17.9376 3.59383 17.1116 3.25108 16.25 3.25V1.625C17.5424 1.62651 18.7815 2.1406 19.6954 3.05452C20.6093 3.96843 21.1234 5.20753 21.125 6.5V11.375H22.75C23.1809 11.375 23.5943 11.5462 23.899 11.851C24.2037 12.1557 24.375 12.569 24.375 13V22.75C24.375 23.181 24.2037 23.5943 23.899 23.899C23.5943 24.2038 23.1809 24.375 22.75 24.375Z" fill="#0F172A"/>
<path d="M16.25 11.375H14.625V6.5C14.625 5.20707 14.1114 3.96709 13.1971 3.05285C12.2829 2.13861 11.0429 1.625 9.75 1.625C8.45707 1.625 7.21709 2.13861 6.30285 3.05285C5.38861 3.96709 4.875 5.20707 4.875 6.5V11.375H3.25C2.81902 11.375 2.4057 11.5462 2.10095 11.851C1.7962 12.1557 1.625 12.569 1.625 13V22.75C1.625 23.181 1.7962 23.5943 2.10095 23.899C2.4057 24.2038 2.81902 24.375 3.25 24.375H16.25C16.681 24.375 17.0943 24.2038 17.399 23.899C17.7038 23.5943 17.875 23.181 17.875 22.75V13C17.875 12.569 17.7038 12.1557 17.399 11.851C17.0943 11.5462 16.681 11.375 16.25 11.375ZM6.5 6.5C6.5 5.63805 6.84241 4.8114 7.4519 4.2019C8.0614 3.59241 8.88805 3.25 9.75 3.25C10.612 3.25 11.4386 3.59241 12.0481 4.2019C12.6576 4.8114 13 5.63805 13 6.5V11.375H6.5V6.5ZM16.25 22.75H3.25V13H16.25V22.75Z" fill="#0F172A"/>
</svg>
