<svg width="19" height="19" viewBox="0 0 19 19" fill="none" xmlns="http://www.w3.org/2000/svg">
<path d="M9.5001 11.083C8.84038 11.083 8.27961 10.8521 7.81781 10.3903C7.356 9.92849 7.1251 9.36773 7.1251 8.70801V3.95801C7.1251 3.29829 7.356 2.73752 7.81781 2.27572C8.27961 1.81391 8.84038 1.58301 9.5001 1.58301C10.1598 1.58301 10.7206 1.81391 11.1824 2.27572C11.6442 2.73752 11.8751 3.29829 11.8751 3.95801V8.70801C11.8751 9.36773 11.6442 9.92849 11.1824 10.3903C10.7206 10.8521 10.1598 11.083 9.5001 11.083ZM8.70843 15.833V14.1903C7.49454 14.0188 6.45561 13.5042 5.59164 12.6466C4.72767 11.7889 4.20306 10.7465 4.01781 9.51947C3.99142 9.29516 4.05079 9.10384 4.19593 8.94551C4.34107 8.78717 4.52579 8.70801 4.7501 8.70801C4.97441 8.70801 5.16256 8.78401 5.31456 8.93601C5.46656 9.08801 5.56868 9.2759 5.62093 9.49967C5.80566 10.4233 6.26429 11.182 6.99685 11.7757C7.72941 12.3695 8.56382 12.6663 9.5001 12.6663C10.4501 12.6663 11.2879 12.3663 12.0136 11.7662C12.7393 11.1661 13.1945 10.4106 13.3793 9.49967C13.432 9.27537 13.5344 9.08748 13.6864 8.93601C13.8384 8.78454 14.0263 8.70854 14.2501 8.70801C14.4739 8.70748 14.6586 8.78665 14.8043 8.94551C14.9499 9.10437 15.0093 9.29569 14.9824 9.51947C14.7977 10.7202 14.2765 11.7559 13.4189 12.6268C12.5612 13.4976 11.5188 14.0188 10.2918 14.1903V15.833C10.2918 16.0573 10.2158 16.2455 10.0638 16.3975C9.91177 16.5495 9.72388 16.6252 9.5001 16.6247C9.27632 16.6241 9.08843 16.5481 8.93643 16.3967C8.78443 16.2452 8.70843 16.0573 8.70843 15.833Z" fill="white"/>
</svg>
