<svg width="17" height="20" viewBox="0 0 17 20" fill="none" xmlns="http://www.w3.org/2000/svg">
<path d="M16.1668 13.2907C16.0954 13.2047 16.0254 13.1188 15.9566 13.0359C15.0113 11.8925 14.4394 11.2024 14.4394 7.96555C14.4394 6.28977 14.0385 4.91477 13.2483 3.88352C12.6657 3.12168 11.878 2.54375 10.8399 2.11664C10.8266 2.10921 10.8146 2.09946 10.8047 2.08785C10.4313 0.837461 9.40949 0 8.25706 0C7.10464 0 6.08328 0.837461 5.70988 2.08656C5.69993 2.09776 5.68816 2.10721 5.67507 2.11449C3.2525 3.1118 2.07515 5.0252 2.07515 7.96426C2.07515 11.2024 1.5041 11.8925 0.557925 13.0346C0.489175 13.1175 0.419136 13.2017 0.347808 13.2894C0.163558 13.5116 0.0468208 13.7819 0.0114113 14.0684C-0.0239983 14.3549 0.0234022 14.6455 0.148003 14.9059C0.41312 15.4645 0.978159 15.8112 1.62312 15.8112H14.8957C15.5377 15.8112 16.0989 15.4649 16.3648 14.9089C16.49 14.6484 16.5378 14.3576 16.5027 14.0708C16.4676 13.784 16.351 13.5132 16.1668 13.2907ZM8.25706 19.25C8.87798 19.2495 9.48718 19.081 10.0201 18.7622C10.5529 18.4435 10.9896 17.9865 11.2838 17.4397C11.2976 17.4135 11.3045 17.3842 11.3037 17.3545C11.3028 17.3249 11.2943 17.296 11.279 17.2706C11.2637 17.2452 11.2421 17.2242 11.2163 17.2097C11.1905 17.1951 11.1613 17.1875 11.1317 17.1875H5.38332C5.35363 17.1874 5.32443 17.195 5.29855 17.2095C5.27268 17.224 5.251 17.245 5.23564 17.2704C5.22028 17.2958 5.21176 17.3248 5.21091 17.3544C5.21006 17.3841 5.2169 17.4135 5.23078 17.4397C5.52491 17.9865 5.96152 18.4434 6.49432 18.7621C7.02711 19.0808 7.63622 19.2494 8.25706 19.25Z" fill="#0F172A"/>
</svg>
