<svg width="17" height="17" viewBox="0 0 17 17" fill="none" xmlns="http://www.w3.org/2000/svg">
<path d="M11.0462 2.14427C10.4 1.44666 9.49738 1.0625 8.50115 1.0625C7.49961 1.0625 6.59404 1.44434 5.95081 2.13763C5.3006 2.83855 4.9838 3.79115 5.05819 4.81979C5.20563 6.84919 6.75011 8.50006 8.50115 8.50006C10.2522 8.50006 11.794 6.84952 11.9438 4.82046C12.0192 3.80111 11.7004 2.8505 11.0462 2.14427ZM14.3457 15.9376H2.65661C2.50361 15.9396 2.3521 15.9075 2.21308 15.8435C2.07407 15.7796 1.95105 15.6855 1.85299 15.5681C1.63714 15.3101 1.55014 14.9578 1.61456 14.6015C1.89483 13.0469 2.76952 11.741 4.14431 10.8243C5.36569 10.0105 6.91283 9.56257 8.50115 9.56257C10.0895 9.56257 11.6366 10.0108 12.858 10.8243C14.2328 11.7407 15.1075 13.0466 15.3877 14.6012C15.4522 14.9575 15.3652 15.3097 15.1493 15.5677C15.0513 15.6852 14.9283 15.7794 14.7893 15.8434C14.6502 15.9074 14.4987 15.9396 14.3457 15.9376Z" fill="#389BFF" fill-opacity="0.8"/>
</svg>
