<svg width="15" height="16" viewBox="0 0 15 16" fill="none" xmlns="http://www.w3.org/2000/svg">
<path d="M5.54765 11.1756C3.99716 11.1756 2.68506 10.6346 1.61138 9.55255C0.537696 8.47052 0.000569442 7.14894 4.51579e-07 5.58779C-0.000568538 4.02665 0.536558 2.70507 1.61138 1.62304C2.6862 0.541013 3.99829 0 5.54765 0C7.09701 0 8.40939 0.541013 9.48478 1.62304C10.5602 2.70507 11.097 4.02665 11.0953 5.58779C11.0953 6.21821 10.9957 6.81281 10.7966 7.37159C10.5974 7.93037 10.3272 8.42467 9.98578 8.85451L14.7653 13.6686C14.9218 13.8262 15 14.0268 15 14.2704C15 14.5139 14.9218 14.7145 14.7653 14.8721C14.6088 15.0297 14.4097 15.1085 14.1679 15.1085C13.926 15.1085 13.7269 15.0297 13.5704 14.8721L8.7909 10.058C8.36415 10.4019 7.8734 10.6741 7.31863 10.8747C6.76387 11.0753 6.17354 11.1756 5.54765 11.1756ZM5.54765 9.45627C6.61451 9.45627 7.52148 9.08031 8.26856 8.32839C9.01565 7.57648 9.38891 6.66294 9.38834 5.58779C9.38777 4.51265 9.01451 3.5994 8.26856 2.84806C7.52262 2.09671 6.61565 1.72047 5.54765 1.71932C4.47966 1.71818 3.57297 2.09442 2.8276 2.84806C2.08222 3.60169 1.70868 4.51494 1.70697 5.58779C1.70526 6.66065 2.07881 7.57418 2.8276 8.32839C3.57639 9.0826 4.48307 9.45856 5.54765 9.45627Z" fill="#6A717F"/>
</svg>
