<svg width="23" height="23" viewBox="0 0 23 23" fill="none" xmlns="http://www.w3.org/2000/svg">
<path d="M8.43332 10.7333C7.41665 10.7333 6.44163 10.3295 5.72274 9.61057C5.00385 8.89168 4.59998 7.91666 4.59998 6.89999V3.83333C4.59998 3.62999 4.68076 3.43499 4.82454 3.29121C4.96831 3.14743 5.16332 3.06666 5.36665 3.06666H6.13332C6.33665 3.06666 6.53165 2.98588 6.67543 2.84211C6.81921 2.69833 6.89998 2.50332 6.89998 2.29999C6.89998 2.09666 6.81921 1.90165 6.67543 1.75788C6.53165 1.6141 6.33665 1.53333 6.13332 1.53333H5.36665C4.75665 1.53333 4.17164 1.77565 3.7403 2.20698C3.30897 2.63831 3.06665 3.22333 3.06665 3.83333V6.89999C3.06764 7.76612 3.27884 8.61907 3.68213 9.38559C4.08542 10.1521 4.66873 10.8093 5.38198 11.3007C6.06794 11.9042 6.62415 12.6409 7.01688 13.4658C7.4096 14.2908 7.63066 15.187 7.66665 16.1C7.66665 17.5233 8.23207 18.8884 9.23851 19.8948C10.245 20.9012 11.61 21.4667 13.0333 21.4667C14.4566 21.4667 15.8217 20.9012 16.8281 19.8948C17.8346 18.8884 18.4 17.5233 18.4 16.1V15.226C19.1227 15.0394 19.7525 14.5956 20.1714 13.9779C20.5904 13.3601 20.7696 12.6107 20.6755 11.8703C20.5815 11.1298 20.2206 10.4491 19.6606 9.95568C19.1005 9.46226 18.3797 9.19004 17.6333 9.19004C16.8869 9.19004 16.1661 9.46226 15.6061 9.95568C15.046 10.4491 14.6851 11.1298 14.5911 11.8703C14.497 12.6107 14.6763 13.3601 15.0952 13.9779C15.5141 14.5956 16.1439 15.0394 16.8666 15.226V16.1C16.8666 17.1167 16.4628 18.0917 15.7439 18.8106C15.025 19.5295 14.05 19.9333 13.0333 19.9333C12.0167 19.9333 11.0416 19.5295 10.3227 18.8106C9.60385 18.0917 9.19998 17.1167 9.19998 16.1C9.23791 15.1859 9.46136 14.289 9.85676 13.464C10.2522 12.6389 10.8112 11.9029 11.5 11.3007C12.2104 10.8076 12.7907 10.1496 13.1913 9.38324C13.5919 8.61683 13.8007 7.76476 13.8 6.89999V3.83333C13.8 3.22333 13.5577 2.63831 13.1263 2.20698C12.695 1.77565 12.11 1.53333 11.5 1.53333H10.7333C10.53 1.53333 10.335 1.6141 10.1912 1.75788C10.0474 1.90165 9.96665 2.09666 9.96665 2.29999C9.96665 2.50332 10.0474 2.69833 10.1912 2.84211C10.335 2.98588 10.53 3.06666 10.7333 3.06666H11.5C11.7033 3.06666 11.8983 3.14743 12.0421 3.29121C12.1859 3.43499 12.2667 3.62999 12.2667 3.83333V6.89999C12.2667 7.40339 12.1675 7.90186 11.9749 8.36694C11.7822 8.83203 11.4999 9.25461 11.1439 9.61057C10.7879 9.96653 10.3654 10.2489 9.90027 10.4415C9.43519 10.6342 8.93672 10.7333 8.43332 10.7333ZM17.6333 13.8C17.2267 13.8 16.8366 13.6384 16.5491 13.3509C16.2615 13.0633 16.1 12.6733 16.1 12.2667C16.1 11.86 16.2615 11.47 16.5491 11.1824C16.8366 10.8949 17.2267 10.7333 17.6333 10.7333C18.04 10.7333 18.43 10.8949 18.7175 11.1824C19.0051 11.47 19.1667 11.86 19.1667 12.2667C19.1667 12.6733 19.0051 13.0633 18.7175 13.3509C18.43 13.6384 18.04 13.8 17.6333 13.8Z" fill="#359AFF"/>
</svg>
