<svg width="43" height="43" viewBox="0 0 43 43" fill="none" xmlns="http://www.w3.org/2000/svg">
<mask id="mask0_272_1794" style="mask-type:luminance" maskUnits="userSpaceOnUse" x="2" y="2" width="39" height="39">
<path d="M36.7292 3.58334H6.27084C5.55807 3.58334 4.8745 3.86649 4.37049 4.37049C3.86649 4.8745 3.58334 5.55807 3.58334 6.27084V36.7292C3.58334 37.4419 3.86649 38.1255 4.37049 38.6295C4.8745 39.1335 5.55807 39.4167 6.27084 39.4167H36.7292C37.4419 39.4167 38.1255 39.1335 38.6295 38.6295C39.1335 38.1255 39.4167 37.4419 39.4167 36.7292V6.27084C39.4167 5.55807 39.1335 4.8745 38.6295 4.37049C38.1255 3.86649 37.4419 3.58334 36.7292 3.58334Z" fill="white" stroke="white" stroke-width="2" stroke-linejoin="round"/>
<path d="M10.75 17.0692C13.7283 13.4859 17.3117 11.6942 21.5 11.6942C25.6877 11.6942 29.2711 13.4859 32.25 17.0692" stroke="black" stroke-width="2" stroke-linecap="round"/>
<path d="M21.5 27.7708C22.2128 27.7708 22.8963 27.4877 23.4003 26.9837C23.9044 26.4797 24.1875 25.7961 24.1875 25.0833C24.1875 24.3706 23.9044 23.687 23.4003 23.183C22.8963 22.679 22.2128 22.3958 21.5 22.3958C20.7872 22.3958 20.1037 22.679 19.5997 23.183C19.0956 23.687 18.8125 24.3706 18.8125 25.0833C18.8125 25.7961 19.0956 26.4797 19.5997 26.9837C20.1037 27.4877 20.7872 27.7708 21.5 27.7708Z" fill="black"/>
<path d="M17.0208 18.8125L21.5072 25.0833" stroke="black" stroke-width="2" stroke-linecap="round"/>
</mask>
<g mask="url(#mask0_272_1794)">
<path d="M0 0H43V43H0V0Z" fill="#FF9C5E"/>
</g>
</svg>
