<svg width="279" height="73" viewBox="0 0 279 73" fill="none" xmlns="http://www.w3.org/2000/svg">
<path d="M100.714 18.9816C102.122 18.9779 104.261 19.2129 105.468 19.5067C106.675 19.8005 107.911 20.2855 108.211 20.5867C108.697 21.0715 108.693 21.2844 108.152 22.5257C107.816 23.2933 107.322 23.8849 107.055 23.8445C106.784 23.8004 105.658 23.4991 104.554 23.176C103.213 22.7842 101.841 22.658 100.439 22.7976C99.2838 22.9114 97.9672 23.1687 97.5137 23.3707C97.0602 23.5764 96.4861 24.153 96.2337 24.6562C95.9814 25.1631 95.7766 25.9858 95.7766 26.4926C95.7767 26.9958 96.2301 27.8774 96.7823 28.4503C97.4528 29.1432 98.9462 29.8752 101.262 30.6464C103.175 31.2818 105.475 32.2808 106.382 32.8684C107.479 33.581 108.302 34.5018 108.851 35.6306C109.348 36.659 109.674 38.0143 109.677 39.0721C109.677 40.1555 109.366 41.4408 108.854 42.4655C108.303 43.5649 107.479 44.4514 106.382 45.1247C105.475 45.6793 103.749 46.3185 102.542 46.5425C101.324 46.7703 99.2874 46.8472 97.9709 46.7187C96.6653 46.5901 94.6282 46.201 93.447 45.8521C92.2657 45.5069 91.1137 45.0072 90.887 44.7391C90.5725 44.3719 90.6713 43.8613 92.1195 41.0003L94.4052 41.9881C96.2081 42.7704 97.2687 42.9798 99.4337 42.9798C101.31 42.9835 102.553 42.785 103.365 42.359C104.02 42.0174 104.718 41.3198 104.919 40.8167C105.12 40.3099 105.285 39.4834 105.285 38.9802C105.285 38.4734 105.055 37.6911 104.773 37.2357C104.491 36.7802 103.215 35.9685 101.939 35.4322C100.662 34.8923 98.6291 34.1064 97.4223 33.6841C96.2155 33.258 94.5807 32.3762 93.7945 31.7225C93.0046 31.0687 92.1378 29.9965 91.8745 29.3391C91.6075 28.6817 91.3919 27.5247 91.3956 26.7681C91.3992 26.0115 91.604 24.7517 91.8527 23.9693C92.0977 23.187 92.7156 22.0595 93.2166 21.4608C93.7542 20.8254 94.9611 20.0909 96.1423 19.6832C97.3565 19.2645 99.1667 18.9853 100.714 18.9816ZM116.805 27.767C117.61 27.5907 119.255 27.4989 120.462 27.5651C121.669 27.6312 123.271 27.9544 124.028 28.2813C124.851 28.6413 125.802 29.4933 126.405 30.4115C127.403 31.9357 127.411 31.9874 127.593 46.1423H125.765C124.383 46.1423 123.936 46.0063 123.936 45.5913C123.936 45.2865 123.852 45.0404 123.754 45.0404C123.651 45.0405 122.953 45.4114 122.199 45.8668C121.15 46.4985 120.265 46.6932 118.451 46.6932C116.732 46.6932 115.73 46.4875 114.83 45.9586C114.146 45.5546 113.243 44.7576 112.819 44.1846C112.241 43.4097 112.051 42.6126 112.051 41.0003C112.051 39.41 112.244 38.5797 112.804 37.812C113.217 37.2428 114.285 36.4017 115.181 35.9462C116.501 35.2704 117.401 35.1164 123.205 35.1238V33.8383C123.205 32.8613 122.964 32.3728 122.199 31.8035C121.523 31.3003 120.656 31.065 119.548 31.0797C118.641 31.0907 117.16 31.2672 116.256 31.4692C115.35 31.6675 114.49 31.7078 114.344 31.5499C114.194 31.3957 113.909 30.731 113.704 30.0736C113.357 28.9608 113.4 28.8506 114.336 28.4797C114.889 28.263 116 27.9396 116.805 27.767ZM151.548 27.4697C152.553 27.455 154.184 27.723 155.172 28.0683C156.379 28.4907 157.344 29.159 159.228 31.5169L159.41 46.1423H157.765C156.543 46.1423 156.119 45.9989 156.119 45.5913C156.119 45.2865 156.035 45.0404 155.936 45.0404C155.834 45.0405 155.051 45.404 154.199 45.8521C153.073 46.4397 151.986 46.6675 150.268 46.6785C148.509 46.6895 147.558 46.4947 146.61 45.9364C145.905 45.5213 144.961 44.5297 144.511 43.7327C144.061 42.9357 143.692 41.7055 143.688 41.0003C143.685 40.2915 143.985 39.1345 144.358 38.4293C144.753 37.6838 145.711 36.7616 146.647 36.2364C147.996 35.4724 148.827 35.3111 155.388 35.1238L155.402 34.1137C155.41 33.5592 155.095 32.6887 154.704 32.1855C154.056 31.3555 153.735 31.2673 151.306 31.2673C149.829 31.2673 148.084 31.3922 147.433 31.5428C146.322 31.7998 146.208 31.73 145.696 30.5327C145.393 29.8242 145.174 29.178 145.206 29.093C145.239 29.0085 145.941 28.6853 146.76 28.3767C147.583 28.0646 148.585 27.7378 148.988 27.6533C149.39 27.5651 150.542 27.4843 151.548 27.4697ZM138.016 27.9618C138.865 27.6385 140.094 27.4805 140.942 27.5834C141.747 27.6788 142.54 27.8882 142.708 28.0425C142.877 28.2004 142.873 28.9902 142.379 31.2673L140.196 31.3369C138.206 31.403 137.91 31.5244 135.639 34.0219V46.1423H131.616V28.1454H133.445C135.102 28.1454 135.27 28.2225 135.259 28.9718C135.248 29.7576 135.281 29.7686 135.899 29.159C136.257 28.8064 137.212 28.2666 138.016 27.9618ZM155.388 38.062C151.485 38.0841 150.03 38.3155 149.445 38.6277C148.893 38.9215 148.34 39.5349 148.22 39.9903C148.103 40.4457 148.103 41.1876 148.22 41.643C148.348 42.1242 148.973 42.6972 149.719 43.0204C150.706 43.4464 151.314 43.4869 152.37 43.2004C153.124 42.9947 154.115 42.4548 154.576 42.0067C155.187 41.4007 155.402 40.7689 155.399 39.623L155.388 38.062ZM123.205 38.062C119.946 38.1282 118.67 38.2272 118.268 38.3264C117.866 38.4256 117.244 38.7781 116.885 39.1087C116.527 39.4429 116.231 40.2107 116.231 40.8167C116.231 41.4226 116.527 42.2049 116.885 42.5501C117.288 42.9468 118.125 43.1892 119.091 43.1929C119.946 43.2002 121.014 43.013 121.468 42.7779C121.921 42.5429 122.492 42.0874 122.737 41.7679C122.982 41.4447 123.187 40.4824 123.194 39.623L123.205 38.062Z" fill="#0F172A"/>
<path d="M65.6415 48.177C65.2904 47.6555 64.281 47.5781 57.8701 47.5928L50.5048 47.6114L50.2669 48.8051C50.1389 49.4626 49.5064 50.8105 48.8591 51.8058C48.2118 52.8011 46.9428 54.1748 46.0395 54.8652C45.1325 55.5557 43.2417 56.6721 41.8338 57.3516C40.4258 58.0311 37.8731 58.9899 36.1653 59.4857C34.4537 59.9815 30.8735 60.6939 28.2075 61.0685L23.3582 61.7518L23.3654 72.9539C43.4388 72.7813 44.9058 72.6895 45.948 72.1276C46.599 71.775 47.7365 70.9486 48.4716 70.2911C49.2067 69.6337 50.1685 68.5172 50.6037 67.812C51.0426 67.1032 51.5946 65.7405 51.8287 64.7819C52.0701 63.7902 52.2566 60.2606 52.2566 56.6098V50.1824C64.6787 50.0098 65.5574 49.9215 65.7879 49.3854C65.9305 49.0512 65.8645 48.5039 65.6415 48.177Z" fill="url(#paint0_linear_298_1490)"/>
<path d="M52.0737 0.0482355C32.4241 -0.0729677 29.374 0.029685 28.1196 0.407987C27.1139 0.712832 26.0131 1.41817 25.2854 2.22252C24.6307 2.94608 23.9321 4.15816 23.7346 4.91474C23.5335 5.67171 23.3689 9.80354 23.3689 14.0968L23.3654 21.9016C4.81305 22.0779 4.07772 22.1364 2.88552 22.8453C2.18339 23.2603 1.27642 24.1712 0.874112 24.8653C0.197546 26.0296 0.135346 26.915 0.0219757 36.5929C-0.0475068 42.8587 0.0511198 47.5784 0.270545 48.346C0.471704 49.0511 1.18133 50.1381 1.85053 50.7588C2.62217 51.4713 3.77422 52.0479 4.98837 52.3197C6.18424 52.5915 10.3131 52.7495 15.9597 52.7458C21.7562 52.7422 26.3935 52.5474 28.851 52.2132C30.9648 51.9231 33.7625 51.3832 35.0681 51.0159C36.3737 50.645 38.2279 49.8958 39.1824 49.3449C40.1369 48.794 41.1243 47.9198 41.3767 47.4019C41.7168 46.6968 41.7314 46.3038 41.4242 45.841C41.1974 45.5031 40.6232 44.9339 40.1442 44.5813C39.6651 44.2251 37.5477 43.6078 35.4338 43.2112C33.32 42.8108 30.4419 42.0691 29.0339 41.5659C27.5784 41.0407 25.7829 40.0489 24.8686 39.2629C23.9873 38.5027 23.0401 37.423 22.7657 36.8684C22.4915 36.3138 22.2721 35.1568 22.2757 34.2974C22.2794 33.438 22.4842 32.0752 22.7329 31.2709C22.9925 30.4188 24.0382 28.8799 25.2304 27.5981C26.5213 26.2061 28.2073 24.8948 29.8017 24.05C31.1878 23.3118 33.8064 22.1841 35.6167 21.5451C37.427 20.9097 40.0601 20.1386 41.4681 19.8374C42.8761 19.5362 47.1951 19.0512 51.068 18.761L58.108 18.2288C60.0937 19.9365 61.1214 20.5314 61.6736 20.6563C62.2258 20.7775 63.2388 20.6562 63.919 20.3808C64.6028 20.1054 65.5061 19.4149 65.9304 18.8457C66.4448 18.1552 66.6755 17.3594 66.6218 16.4583C66.5816 15.7165 66.2926 14.7359 65.9818 14.2805C65.6746 13.825 64.848 13.1639 64.1422 12.8113C63.0341 12.2567 62.6647 12.231 61.3994 12.6277C60.5546 12.8921 59.5891 13.5568 59.1137 14.1958C58.3128 15.2756 58.2104 15.305 55.2737 15.2977L52.2566 15.2905L52.0737 0.0482355Z" fill="url(#paint1_linear_298_1490)"/>
<path fill-rule="evenodd" clip-rule="evenodd" d="M73.0107 23.3707C73.2594 23.3707 74.0018 23.5873 74.6564 23.8517C75.3074 24.1161 76.1339 24.7369 76.485 25.229C76.8434 25.7285 77.1285 26.7754 77.1285 27.5945C77.1285 28.4025 76.9164 29.4528 76.6567 29.9266C76.3934 30.404 75.5706 31.0248 74.8246 31.3039C74.0603 31.594 73.0253 31.7116 72.4621 31.5794C71.9062 31.4508 71.0029 31.0358 70.4507 30.6611C69.8949 30.2866 69.4451 29.7321 69.445 29.4309C69.445 28.9681 68.6441 28.8798 64.4165 28.8871C61.019 28.8908 58.6748 29.0817 57.1937 29.4711C55.9869 29.7906 54.3411 30.3855 53.5366 30.7896C52.732 31.1972 51.5252 32.0494 50.8523 32.6848C50.183 33.3165 49.4222 34.2496 49.1662 34.7565C48.9103 35.2597 48.5958 36.1303 48.2337 37.6948H65.349L66.629 36.4093C67.7188 35.3111 68.1542 35.1238 69.5914 35.1238C70.8494 35.1238 71.5479 35.3552 72.3707 36.042C73.0948 36.648 73.5409 37.4267 73.6835 38.3375C73.8152 39.1639 73.7055 40.1444 73.4093 40.7944C73.1386 41.3894 72.4256 42.1718 71.8221 42.5354C71.2187 42.9027 70.352 43.2001 69.9021 43.2001C69.4487 43.2037 68.5856 42.9542 67.9822 42.6531C67.3787 42.3482 66.5559 41.6871 65.4222 40.2657L54.5423 40.2618C48.5556 40.2618 42.1812 40.0892 40.3709 39.8798C38.3084 39.6411 36.3591 39.1639 35.1596 38.5983C34.1027 38.0988 33.0566 37.3238 32.8335 36.8684C32.6104 36.413 32.53 35.4213 32.6507 34.6647C32.8079 33.6804 33.2652 32.9492 34.2453 32.1192C34.9987 31.4764 36.6041 30.5031 37.811 29.9596C39.0178 29.4123 41.4864 28.6044 43.2966 28.1637C45.1069 27.723 47.74 27.2123 49.148 27.036C50.556 26.8561 55.6577 26.5991 60.4851 26.4632C68.9544 26.2245 69.2731 26.1877 69.6279 25.4349C69.829 25.0052 70.5678 24.3661 71.2736 24.0135C71.9757 23.6609 72.7583 23.3707 73.0107 23.3707ZM68.1539 37.6324C68.5197 37.2614 69.127 36.9602 69.5 36.9602C69.873 36.9602 70.4472 37.0851 70.78 37.2357C71.1128 37.3863 71.5259 37.9225 71.7014 38.4293C71.9245 39.0757 71.8552 39.59 71.4639 40.1739C71.1092 40.7028 70.5421 40.9965 69.9021 40.9892C69.3499 40.9855 68.6038 40.6954 68.2454 40.3464C67.887 40.0012 67.569 39.399 67.5397 39.0097C67.5104 38.6204 67.7846 37.9996 68.1539 37.6324Z" fill="url(#paint2_linear_298_1490)"/>
<path d="M254.403 27.778C253.445 27.576 252.213 27.4289 251.661 27.4509C251.105 27.4766 250.077 27.6126 249.375 27.7558C248.669 27.899 247.393 28.3765 246.541 28.8135C245.685 29.2543 244.485 30.316 243.871 31.1754C243.257 32.0348 242.58 33.3975 242.368 34.2055C242.152 35.0136 242.053 36.7472 242.149 38.062C242.244 39.4062 242.639 41.0884 243.052 41.9184C243.458 42.7265 244.347 43.8612 245.027 44.4378C245.707 45.0181 246.841 45.7453 247.546 46.0575C248.344 46.4101 249.931 46.6305 251.752 46.6379C253.731 46.6452 255.12 46.4468 256.049 46.0281C256.802 45.6866 257.42 45.2424 257.421 45.0403C257.421 44.8383 257.194 44.1368 256.916 43.4794L256.411 42.2857C253.083 43.0864 251.54 43.2184 250.838 43.0899C250.132 42.965 249.075 42.4838 248.486 42.021C247.898 41.5619 247.199 40.6476 246.932 39.9902C246.665 39.3328 246.453 38.0105 246.457 37.0519C246.46 35.8693 246.757 34.8005 247.371 33.7464C248.037 32.5968 248.687 32.0275 249.832 31.5904C251.068 31.1203 251.759 31.0726 253.215 31.359C254.221 31.5574 255.288 31.8328 255.592 31.9724C255.994 32.1597 256.316 31.807 256.806 30.6464C257.45 29.1149 257.45 29.0488 256.806 28.6044C256.441 28.351 255.358 27.98 254.403 27.778Z" fill="url(#paint3_linear_298_1490)"/>
<path d="M174.861 27.778C174.104 27.5797 173.077 27.4252 172.576 27.4362C172.071 27.4472 170.919 27.697 170.016 27.9871C169.109 28.2773 168.074 28.8064 167.715 29.1553C167.097 29.7686 167.064 29.7575 167.075 28.9717C167.086 28.2224 166.918 28.1453 165.261 28.1453H163.433V46.1422H167.456C167.456 34.8522 167.536 34.0732 168.187 33.0118C168.688 32.1891 169.346 31.708 170.29 31.4656C171.043 31.2746 172.133 31.2305 172.707 31.3737C173.285 31.517 173.943 31.8657 174.17 32.1485C174.43 32.468 174.656 35.1786 174.77 39.3105L174.953 45.9586L179.158 46.1422C179.338 33.4709 179.359 33.3239 180.255 32.4057C180.756 31.8878 181.579 31.3882 182.084 31.2927C182.585 31.1935 183.572 31.2633 184.278 31.4469C185.086 31.6563 185.726 32.1264 186.015 32.7177C186.326 33.3531 186.473 35.6452 186.473 39.8984V46.1422H190.495C190.503 35.3518 190.342 32.2333 190.086 31.4509C189.852 30.7421 189.234 29.7026 188.707 29.1406C188.181 28.575 187.094 27.9394 186.29 27.7264C185.478 27.5097 184.011 27.4473 182.998 27.5869C181.993 27.7264 180.756 28.0535 180.255 28.3143C179.751 28.575 179.133 29.0598 178.884 29.3867C178.471 29.9229 178.321 29.8935 177.33 29.0635C176.726 28.5567 175.615 27.98 174.861 27.778Z" fill="url(#paint4_linear_298_1490)"/>
<path d="M234.746 46.1422H238.769V28.1453H234.746V46.1422Z" fill="url(#paint5_linear_298_1490)"/>
<path d="M238.586 20.2487C238.283 19.9439 237.46 19.6978 236.758 19.6978C235.964 19.6978 235.2 19.9769 234.746 20.4324C234.344 20.8364 234.015 21.5783 234.015 22.0851C234.015 22.5883 234.425 23.4148 234.929 23.9216C235.43 24.4247 236.089 24.8397 236.392 24.8398C236.692 24.8398 237.35 24.6745 237.855 24.4725C238.356 24.2705 238.938 23.6498 239.146 23.0952C239.351 22.5406 239.435 21.795 239.329 21.4424C239.219 21.0898 238.886 20.5499 238.586 20.2487Z" fill="url(#paint6_linear_298_1490)"/>
<path fill-rule="evenodd" clip-rule="evenodd" d="M202.29 27.4473C202.842 27.429 204.074 27.6089 205.032 27.8476C206.217 28.1488 207.238 28.7622 208.251 29.7759C209.264 30.7932 209.871 31.8181 210.171 33.0118C210.412 33.9704 210.61 35.5829 210.61 38.4292H204.392C200.973 38.4292 198.099 38.5541 198.007 38.7047C197.916 38.8555 198.124 39.5458 198.464 40.2398C198.808 40.9303 199.499 41.8079 200.004 42.19C200.505 42.5682 201.657 42.9759 202.564 43.0935C203.467 43.211 204.948 43.1266 205.855 42.9062C206.759 42.6895 207.786 42.4179 208.141 42.304C208.613 42.1534 208.924 42.4363 209.33 43.3876C209.629 44.0927 209.794 44.8383 209.695 45.0403C209.593 45.2424 208.894 45.672 208.141 45.9951C207.293 46.3587 205.581 46.6048 203.661 46.6379C201.529 46.6746 200.033 46.4982 198.907 46.0758C197.941 45.7122 196.654 44.7942 195.798 43.8503C194.899 42.8623 194.156 41.5767 193.878 40.5189C193.626 39.5713 193.421 37.8452 193.425 36.6847C193.425 35.256 193.703 33.9777 194.273 32.7364C194.749 31.7043 195.828 30.2937 196.738 29.5151C197.638 28.7475 199.009 27.9873 199.821 27.811C200.626 27.6347 201.734 27.4694 202.29 27.4473ZM200.004 31.6015C200.505 31.3334 201.617 31.1056 202.472 31.0983C203.581 31.0873 204.29 31.3186 204.949 31.91C205.453 32.3654 206.031 33.2728 206.587 35.1237H202.198C199.785 35.1237 197.811 35.0392 197.81 34.9401C197.81 34.8372 198.099 34.1541 198.45 33.4232C198.801 32.6887 199.499 31.866 200.004 31.6015Z" fill="url(#paint7_linear_298_1490)"/>
<path fill-rule="evenodd" clip-rule="evenodd" d="M230.541 19.5142L230.724 46.1422H228.712C227.169 46.1422 226.701 46.0135 226.701 45.5913C226.701 45.1505 226.427 45.2056 225.329 45.8667C224.24 46.5241 223.431 46.6893 221.398 46.6673C219.58 46.6526 218.414 46.425 217.375 45.8961C216.571 45.4848 215.382 44.504 214.735 43.7143C214.084 42.9284 213.385 41.5842 213.181 40.7248C212.972 39.8654 212.811 38.1317 212.818 36.8683C212.829 35.6049 213.034 33.9887 213.276 33.2762C213.521 32.5636 214.172 31.3663 214.724 30.6134C215.276 29.8604 216.428 28.8797 217.284 28.428C218.472 27.8036 219.441 27.6164 221.398 27.6274C223.062 27.6347 224.375 27.8588 226.335 28.8799L226.551 27.3189C226.668 26.4595 226.719 24.9316 226.66 23.9216C226.606 22.9115 226.602 21.4568 226.65 20.6892L226.741 19.2936L230.541 19.5142ZM219.917 31.627C220.531 31.3442 221.566 31.1056 222.221 31.0983C222.875 31.0909 223.987 31.3297 224.689 31.6345C225.392 31.9357 226.134 32.516 226.335 32.92C226.536 33.3241 226.708 35.1826 226.712 37.0519C226.723 39.9057 226.606 40.6109 225.98 41.4593C225.575 42.0139 224.62 42.653 223.867 42.8808C223.062 43.1232 221.892 43.1819 221.032 43.0203C220.217 42.8697 219.145 42.3224 218.615 41.7825C218.088 41.2499 217.452 40.1554 217.2 39.3475C216.929 38.4807 216.834 37.2025 216.973 36.2255C217.101 35.3147 217.565 34.0253 218.001 33.3569C218.439 32.6884 219.303 31.9098 219.917 31.627Z" fill="url(#paint8_linear_298_1490)"/>
<path fill-rule="evenodd" clip-rule="evenodd" d="M265.101 28.1231C266.571 27.5832 267.701 27.4327 269.306 27.5503C270.513 27.6384 272.159 27.9837 272.963 28.3143C273.768 28.6485 274.894 29.3646 275.465 29.9082C276.035 30.4518 276.847 31.5611 277.264 32.3691C277.787 33.3791 278.072 34.7564 278.178 36.7765C278.321 39.4612 278.244 39.8874 277.279 41.7348C276.533 43.1671 275.699 44.1074 274.412 44.9668C273.413 45.6353 271.939 46.3553 271.135 46.5683C270.33 46.7813 268.765 46.8473 267.66 46.7114C266.552 46.5792 264.991 46.1713 264.186 45.8004C263.382 45.4331 262.193 44.5739 261.549 43.8908C260.906 43.2114 260.12 41.9074 259.805 41.0002C259.491 40.0894 259.235 38.2309 259.242 36.8683C259.246 35.2487 259.487 33.8492 259.94 32.8282C260.317 31.9688 261.184 30.7236 261.86 30.0624C262.533 29.4013 263.992 28.5271 265.101 28.1231ZM266.227 31.7263C266.914 31.3737 268.012 31.0836 268.666 31.0836C269.321 31.0836 270.462 31.3737 271.204 31.7263C271.947 32.079 272.85 32.8649 273.216 33.4709C273.662 34.2202 273.874 35.3074 273.878 36.8683C273.878 38.2162 273.64 39.656 273.3 40.3575C272.982 41.0149 272.283 41.8817 271.745 42.2857C271.036 42.8182 270.199 43.0203 268.695 43.0203C266.988 43.0203 266.45 42.8586 265.646 42.1021C265.104 41.5953 264.435 40.7284 264.15 40.1738C263.868 39.6193 263.638 38.2125 263.638 37.0519C263.634 35.7114 263.879 34.4699 264.307 33.6546C264.676 32.9457 265.543 32.0789 266.227 31.7263Z" fill="url(#paint9_linear_298_1490)"/>
<defs>
<linearGradient id="paint0_linear_298_1490" x1="38.5643" y1="0" x2="38.5643" y2="72.9539" gradientUnits="userSpaceOnUse">
<stop stop-color="#22D2EE"/>
<stop offset="1" stop-color="#0961AF"/>
</linearGradient>
<linearGradient id="paint1_linear_298_1490" x1="38.5643" y1="0" x2="38.5643" y2="72.9539" gradientUnits="userSpaceOnUse">
<stop stop-color="#22D2EE"/>
<stop offset="1" stop-color="#0961AF"/>
</linearGradient>
<linearGradient id="paint2_linear_298_1490" x1="38.5643" y1="0" x2="38.5643" y2="72.9539" gradientUnits="userSpaceOnUse">
<stop stop-color="#22D2EE"/>
<stop offset="1" stop-color="#0961AF"/>
</linearGradient>
<linearGradient id="paint3_linear_298_1490" x1="220.833" y1="19.2936" x2="220.833" y2="46.7823" gradientUnits="userSpaceOnUse">
<stop stop-color="#23B9EC"/>
<stop offset="1" stop-color="#019FE4"/>
</linearGradient>
<linearGradient id="paint4_linear_298_1490" x1="220.833" y1="19.2936" x2="220.833" y2="46.7823" gradientUnits="userSpaceOnUse">
<stop stop-color="#23B9EC"/>
<stop offset="1" stop-color="#019FE4"/>
</linearGradient>
<linearGradient id="paint5_linear_298_1490" x1="220.833" y1="19.2936" x2="220.833" y2="46.7823" gradientUnits="userSpaceOnUse">
<stop stop-color="#23B9EC"/>
<stop offset="1" stop-color="#019FE4"/>
</linearGradient>
<linearGradient id="paint6_linear_298_1490" x1="220.833" y1="19.2936" x2="220.833" y2="46.7823" gradientUnits="userSpaceOnUse">
<stop stop-color="#23B9EC"/>
<stop offset="1" stop-color="#019FE4"/>
</linearGradient>
<linearGradient id="paint7_linear_298_1490" x1="220.833" y1="19.2936" x2="220.833" y2="46.7823" gradientUnits="userSpaceOnUse">
<stop stop-color="#23B9EC"/>
<stop offset="1" stop-color="#019FE4"/>
</linearGradient>
<linearGradient id="paint8_linear_298_1490" x1="220.833" y1="19.2936" x2="220.833" y2="46.7823" gradientUnits="userSpaceOnUse">
<stop stop-color="#23B9EC"/>
<stop offset="1" stop-color="#019FE4"/>
</linearGradient>
<linearGradient id="paint9_linear_298_1490" x1="220.833" y1="19.2936" x2="220.833" y2="46.7823" gradientUnits="userSpaceOnUse">
<stop stop-color="#23B9EC"/>
<stop offset="1" stop-color="#019FE4"/>
</linearGradient>
</defs>
</svg>
