<svg width="80" height="80" viewBox="0 0 80 80" fill="none" xmlns="http://www.w3.org/2000/svg">
<path d="M65.6415 48.177C65.2904 47.6555 64.281 47.5781 57.8701 47.5928L50.5048 47.6114L50.2669 48.8051C50.1389 49.4626 49.5064 50.8105 48.8591 51.8058C48.2118 52.8011 46.9428 54.1748 46.0395 54.8652C45.1325 55.5557 43.2417 56.6721 41.8338 57.3516C40.4258 58.0311 37.8731 58.9899 36.1653 59.4857C34.4537 59.9815 30.8735 60.6939 28.2075 61.0685L23.3582 61.7518L23.3654 72.9539C43.4388 72.7813 44.9058 72.6895 45.948 72.1276C46.599 71.775 47.7365 70.9486 48.4716 70.2911C49.2067 69.6337 50.1685 68.5172 50.6037 67.812C51.0426 67.1032 51.5946 65.7405 51.8287 64.7819C52.0701 63.7902 52.2566 60.2606 52.2566 56.6098V50.1824C64.6787 50.0098 65.5574 49.9215 65.7879 49.3854C65.9305 49.0512 65.8645 48.5039 65.6415 48.177Z" fill="url(#paint0_linear)"/>
<path d="M52.0737 0.0482355C32.4241 -0.0729677 29.374 0.029685 28.1196 0.407987C27.1139 0.712832 26.0131 1.41817 25.2854 2.22252C24.6307 2.94608 23.9321 4.15816 23.7346 4.91474C23.5335 5.67171 23.3689 9.80354 23.3689 14.0968L23.3654 21.9016C4.81305 22.0779 4.07772 22.1364 2.88552 22.8453C2.18339 23.2603 1.27642 24.1712 0.874112 24.8653C0.197546 26.0296 0.135346 26.915 0.0219757 36.5929C-0.0475068 42.8587 0.0511198 47.5784 0.270545 48.346C0.471704 49.0511 1.18133 50.1381 1.85053 50.7588C2.62217 51.4713 3.77422 52.0479 4.98837 52.3197C6.18424 52.5915 10.3131 52.7495 15.9597 52.7458C21.7562 52.7422 26.3935 52.5474 28.851 52.2132C30.9648 51.9231 33.7625 51.3832 35.0681 51.0159C36.3737 50.645 38.2279 49.8958 39.1824 49.3449C40.1369 48.794 41.1243 47.9198 41.3767 47.4019C41.7168 46.6968 41.7314 46.3038 41.4242 45.841C41.1974 45.5031 40.6232 44.9339 40.1442 44.5813C39.6651 44.2251 37.5477 43.6078 35.4338 43.2112C33.32 42.8108 30.4419 42.0691 29.0339 41.5659C27.5784 41.0407 25.7829 40.0489 24.8686 39.2629C23.9873 38.5027 23.0401 37.423 22.7657 36.8684C22.4915 36.3138 22.2721 35.1568 22.2757 34.2974C22.2794 33.438 22.4842 32.0752 22.7329 31.2709C22.9925 30.4188 24.0382 28.8799 25.2304 27.5981C26.5213 26.2061 28.2073 24.8948 29.8017 24.05C31.1878 23.3118 33.8064 22.1841 35.6167 21.5451C37.427 20.9097 40.0601 20.1386 41.4681 19.8374C42.8761 19.5362 47.1951 19.0512 51.068 18.761L58.108 18.2288C60.0937 19.9365 61.1214 20.5314 61.6736 20.6563C62.2258 20.7775 63.2388 20.6562 63.919 20.3808C64.6028 20.1054 65.5061 19.4149 65.9304 18.8457C66.4448 18.1552 66.6755 17.3594 66.6218 16.4583C66.5816 15.7165 66.2926 14.7359 65.9818 14.2805C65.6746 13.825 64.848 13.1639 64.1422 12.8113C63.0341 12.2567 62.6647 12.231 61.3994 12.6277C60.5546 12.8921 59.5891 13.5568 59.1137 14.1958C58.3128 15.2756 58.2104 15.305 55.2737 15.2977L52.2566 15.2905L52.0737 0.0482355Z" fill="url(#paint1_linear)"/>
<path fill-rule="evenodd" clip-rule="evenodd" d="M73.0107 23.3707C73.2594 23.3707 74.0018 23.5873 74.6564 23.8517C75.3074 24.1161 76.1339 24.7369 76.485 25.229C76.8434 25.7285 77.1285 26.7754 77.1285 27.5945C77.1285 28.4025 76.9164 29.4528 76.6567 29.9266C76.3934 30.404 75.5706 31.0248 74.8246 31.3039C74.0603 31.594 73.0253 31.7116 72.4621 31.5794C71.9062 31.4508 71.0029 31.0358 70.4507 30.6611C69.8949 30.2866 69.4451 29.7321 69.445 29.4309C69.445 28.9681 68.6441 28.8798 64.4165 28.8871C61.019 28.8908 58.6748 29.0817 57.1937 29.4711C55.9869 29.7906 54.3411 30.3855 53.5366 30.7896C52.732 31.1972 51.5252 32.0494 50.8523 32.6848C50.183 33.3165 49.4222 34.2496 49.1662 34.7565C48.9103 35.2597 48.5958 36.1303 48.2337 37.6948H65.349L66.629 36.4093C67.7188 35.3111 68.1542 35.1238 69.5914 35.1238C70.8494 35.1238 71.5479 35.3552 72.3707 36.042C73.0948 36.648 73.5409 37.4267 73.6835 38.3375C73.8152 39.1639 73.7055 40.1444 73.4093 40.7944C73.1386 41.3894 72.4256 42.1718 71.8221 42.5354C71.2187 42.9027 70.352 43.2001 69.9021 43.2001C69.4487 43.2037 68.5856 42.9542 67.9822 42.6531C67.3787 42.3482 66.5559 41.6871 65.4222 40.2657L54.5423 40.2618C48.5556 40.2618 42.1812 40.0892 40.3709 39.8798C38.3084 39.6411 36.3591 39.1639 35.1596 38.5983C34.1027 38.0988 33.0566 37.3238 32.8335 36.8684C32.6104 36.413 32.53 35.4213 32.6507 34.6647C32.8079 33.6804 33.2652 32.9492 34.2453 32.1192C34.9987 31.4764 36.6041 30.5031 37.811 29.9596C39.0178 29.4123 41.4864 28.6044 43.2966 28.1637C45.1069 27.723 47.74 27.2123 49.148 27.036C50.556 26.8561 55.6577 26.5991 60.4851 26.4632C68.9544 26.2245 69.2731 26.1877 69.6279 25.4349C69.829 25.0052 70.5678 24.3661 71.2736 24.0135C71.9757 23.6609 72.7583 23.3707 73.0107 23.3707ZM68.1539 37.6324C68.5197 37.2614 69.127 36.9602 69.5 36.9602C69.873 36.9602 70.4472 37.0851 70.78 37.2357C71.1128 37.3863 71.5259 37.9225 71.7014 38.4293C71.9245 39.0757 71.8552 39.59 71.4639 40.1739C71.1092 40.7028 70.5421 40.9965 69.9021 40.9892C69.3499 40.9855 68.6038 40.6954 68.2454 40.3464C67.887 40.0012 67.569 39.399 67.5397 39.0097C67.5104 38.6204 67.7846 37.9996 68.1539 37.6324Z" fill="url(#paint2_linear)"/>
<defs>
<linearGradient id="paint0_linear" x1="40" y1="0" x2="40" y2="80" gradientUnits="userSpaceOnUse">
<stop stop-color="#22D2EE"/>
<stop offset="1" stop-color="#0961AF"/>
</linearGradient>
<linearGradient id="paint1_linear" x1="40" y1="0" x2="40" y2="80" gradientUnits="userSpaceOnUse">
<stop stop-color="#22D2EE"/>
<stop offset="1" stop-color="#0961AF"/>
</linearGradient>
<linearGradient id="paint2_linear" x1="40" y1="0" x2="40" y2="80" gradientUnits="userSpaceOnUse">
<stop stop-color="#22D2EE"/>
<stop offset="1" stop-color="#0961AF"/>
</linearGradient>
</defs>
</svg>
