<svg width="37" height="33" viewBox="0 0 37 33" fill="none" xmlns="http://www.w3.org/2000/svg">
<path d="M1.05018 5.79047C1.63139 4.602 3.04481 2.81598 4.18744 1.8267C5.73956 0.478882 6.99445 0.0141183 9.08155 0.000839294C10.6271 -0.0124397 12.3311 0.133629 12.8793 0.312895C13.4539 0.50544 13.6653 0.976843 13.3746 1.44161C13.0488 1.96834 13.2139 2.10998 13.87 1.86653C14.4182 1.66071 15.6797 1.89973 16.677 2.39769C18.1499 3.12803 18.8368 3.14131 20.3097 2.47737C21.307 2.02588 22.4958 1.28226 22.9516 0.817495C23.4535 0.306255 25.1245 0.0473156 27.2447 0.146908C29.6026 0.259779 30.6593 0.578474 30.547 1.14283C30.4546 1.60095 30.7518 1.80014 31.2075 1.59431C31.6632 1.38849 32.8521 2.13211 33.8494 3.25418C35.0977 4.65512 35.5138 5.65768 35.1836 6.45441C34.8401 7.27771 34.9392 7.47026 35.5138 7.11836C35.9894 6.82623 36.4649 7.03205 36.6564 7.61632C36.8414 8.1674 36.9933 9.58161 36.9999 10.7701C37.0065 11.9585 36.6498 13.2997 36.2073 13.7578C35.6988 14.2824 33.4994 14.5878 30.2498 14.5878C25.6331 14.5878 24.9991 14.4351 24.1338 13.0939C23.6055 12.2706 23.295 11.4539 23.4469 11.268C23.6054 11.0888 23.0705 10.5311 22.2647 10.0331C21.4655 9.53513 20.0653 9.29611 19.1538 9.50194C17.9914 9.76752 17.4564 10.3783 17.3375 11.5668C17.245 12.4963 16.8752 13.8574 16.5119 14.5878C15.9835 15.6501 15.5872 15.7829 14.5305 15.2517C13.804 14.8866 10.3893 14.5878 6.935 14.5878C1.9418 14.5878 0.594429 14.382 0.330238 13.5919C0.15191 13.0474 0 11.5535 0 10.2721C0 8.99734 0.475561 6.97893 1.05018 5.79047Z" fill="#747C89"/>
<path d="M19.0349 20.7758C18.9689 20.1649 19.4246 19.1425 20.0521 18.4984C20.9305 17.5888 21.558 17.4627 22.8129 17.9474C23.7045 18.286 26.2209 18.5648 28.4005 18.5648C31.4783 18.5648 32.3633 18.7906 32.3633 19.5607C32.3633 20.1118 31.9142 20.7094 31.3726 20.8886C30.8244 21.0746 30.5272 21.5194 30.7122 21.8846C30.8905 22.2497 30.5933 22.5485 30.0517 22.5485C29.5035 22.5485 29.061 23 29.061 23.5444C29.061 24.0955 28.8166 24.4673 28.5194 24.3744C28.2222 24.2881 26.888 25.1844 25.5472 26.3662C24.2065 27.5547 23.1167 28.6768 23.1167 28.856C23.1167 29.0419 22.5222 29.7855 21.7957 30.5159C21.0296 31.2861 20.1247 31.638 19.6492 31.3525C19.0988 31.0293 18.9887 31.14 19.3189 31.6844C19.6162 32.189 19.3586 32.6737 18.6585 32.9327C17.8461 33.2314 16.7101 32.5476 14.8607 30.6487C13.4077 29.1681 11.6244 27.3489 10.8979 26.6119C10.1713 25.8815 8.75792 24.3677 7.7606 23.2523C6.76328 22.1369 5.91127 20.7027 5.86503 20.0587C5.79238 18.9566 5.77917 18.9566 5.5348 20.0587C5.3961 20.7027 4.9866 21.0746 4.62334 20.8886C4.26007 20.7094 3.96286 20.1118 3.96286 19.5607C3.96286 18.7839 4.8545 18.5715 8.09084 18.5781C10.9969 18.5847 11.9216 18.7773 11.2281 19.2288C10.3827 19.7799 10.4025 19.8794 11.3932 19.8861C12.1263 19.8927 12.7274 20.6297 13.0444 21.9045C13.4143 23.405 13.9162 23.9096 15.0258 23.8963C15.8448 23.8897 16.9544 23.7303 17.5026 23.5444C18.0442 23.3652 18.3414 22.9137 18.1631 22.5485C17.9782 22.1833 18.1301 21.8846 18.4933 21.8846C18.8566 21.8846 19.101 21.3866 19.0349 20.7758Z" fill="#747C89"/>
</svg>
