<svg width="39" height="38" viewBox="0 0 39 38" fill="none" xmlns="http://www.w3.org/2000/svg">
<path d="M23.1792 2.00359C23.79 2.00359 24.4523 1.53343 24.6657 0.953079C24.8717 0.372729 25.6737 -0.053351 26.4537 0.00541867C27.2264 0.0641883 27.874 0.453537 27.8813 0.872271C27.896 1.291 27.1749 2.32682 26.2771 3.16429C25.3794 4.00176 24.0034 5.49304 23.2161 6.47008C22.4287 7.44713 21.6929 9.2396 21.5751 10.4517C21.4648 11.6638 21.2808 14.4774 21.1704 16.696C21.0011 20.1781 20.7657 20.7364 19.5 20.7364C18.2564 20.7364 17.9916 20.1708 17.8002 17.0633C17.6825 15.0431 17.7634 12.6482 17.9842 11.7373C18.2123 10.8264 18.7274 10.2534 19.1321 10.4517C19.5442 10.6574 19.8164 9.93014 19.7575 8.79883C19.6987 7.68955 20.1917 5.70607 20.8613 4.3911C21.5309 3.07613 22.5685 2.00359 23.1792 2.00359Z" fill="#747C89"/>
<path d="M0 38L0.0588356 27.2892L0.117761 16.5858L12.8774 17.0633L12.6934 19.8181C12.5904 21.3315 12.8406 22.573 13.2453 22.573C13.65 22.573 14.327 23.3149 14.7538 24.2259C15.1732 25.1368 16.0048 25.9596 16.5934 26.0624C17.1821 26.1653 18.4919 26.2461 19.5 26.2461C20.5155 26.2461 21.8326 26.1653 22.4287 26.0624C23.0321 25.9596 23.8562 24.9678 24.2683 23.8586C24.6804 22.7493 25.35 22 25.7547 22.2057C26.1962 22.426 26.417 21.4637 26.1226 17.0633L39 16.696V38H0Z" fill="#747C89"/>
</svg>
