<svg width="41" height="40" viewBox="0 0 41 40" fill="none" xmlns="http://www.w3.org/2000/svg">
<path d="M3.2697 1.47981C4.73234 1.47981 5.92634 1.14685 5.92634 0.739903C5.92634 0.332956 6.76214 0 7.79196 0C9.23222 0 9.74713 0.466139 10.0606 2.03473C10.277 3.15199 10.277 4.65399 10.0606 5.3643C9.83668 6.07461 8.98596 6.65913 8.16509 6.65913C7.34422 6.65913 6.50842 6.32617 6.29947 5.91923C6.09052 5.51228 5.41889 5.17932 4.80697 5.17932C3.91894 5.17932 3.6876 6.24479 3.6876 10.3586C3.6876 13.9546 4.09057 16.2187 4.99353 17.7577C5.70993 18.9711 7.38899 20.4731 8.72477 21.0872C10.0606 21.694 11.6575 22.1971 12.2695 22.1971C12.8814 22.1971 14.4783 21.694 15.8141 21.0872C17.1499 20.4731 18.829 18.9711 19.5454 17.7577C20.4483 16.2187 20.8513 13.9546 20.8513 10.3586C20.8513 6.24479 20.62 5.17932 19.7319 5.17932C19.12 5.17932 18.4484 5.51228 18.2394 5.91923C18.0305 6.32617 17.1947 6.65913 16.3738 6.65913C15.5529 6.65913 14.7022 6.07461 14.4783 5.3643C14.2619 4.65399 14.2619 3.15199 14.4783 2.03473C14.7918 0.466139 15.3067 0 16.7469 0C17.7693 0 18.6126 0.332956 18.6126 0.739903C18.6126 1.14685 19.7842 1.47981 21.2244 1.47981C23.3288 1.47981 23.9035 1.80536 24.202 3.14459C24.396 4.06207 24.5527 7.14007 24.5378 9.9887C24.5303 12.8373 24.0229 16.4998 23.4259 18.1276C22.8214 19.7554 21.7468 21.694 21.0304 22.4265C20.314 23.1664 18.4633 24.328 16.9186 25.0161C14.65 26.0298 14.1127 26.6587 14.1201 28.3013C14.1276 29.4186 14.4709 30.336 14.8813 30.336C15.2918 30.336 15.6425 30.9206 15.6574 31.6309C15.6723 32.3412 16.5977 33.673 17.7096 34.5757C18.8215 35.4858 20.5677 36.4328 21.5976 36.6696C22.6199 36.9138 24.4706 36.9138 25.7019 36.6696C26.9332 36.4328 28.8063 35.4858 29.866 34.5757C30.9257 33.673 32.1943 31.7566 32.6793 30.336C33.1644 28.908 33.5599 26.8289 33.5524 25.7116C33.545 24.365 32.7838 23.048 31.2988 21.8271C29.8212 20.6063 29.0526 19.2819 29.0376 17.9427C29.0227 16.6034 29.7839 15.2124 31.2764 13.8732C32.6868 12.6006 34.3808 11.8385 35.7763 11.8385C37.0076 11.8385 38.015 12.1714 38.015 12.5784C38.015 12.9853 38.5225 13.3183 39.1344 13.3183C39.7463 13.3183 40.4179 13.814 40.6269 14.4281C40.8358 15.0348 41 16.8698 41 18.4976C41 20.8653 40.6269 21.6792 39.1344 22.5671C37.5449 23.5141 37.2688 24.217 37.2688 27.3764C37.2688 29.4112 36.9329 31.2387 36.5225 31.4459C36.1121 31.6457 35.7763 32.3116 35.7763 32.9257C35.7763 33.5324 35.0226 34.8864 34.0972 35.9297C33.1719 36.973 31.4107 38.3122 30.1794 38.9041C28.9332 39.5108 25.7915 39.9918 23.09 39.9992C18.5081 40.014 18.0678 39.8586 15.1574 37.2097C13.2396 35.4562 11.7695 33.2956 11.2471 31.4459C10.7844 29.8181 10.4188 27.9831 10.4188 27.3764C10.4262 26.7623 9.16506 25.7042 7.62032 25.0161C6.07559 24.328 4.22489 23.1664 3.5085 22.4265C2.7921 21.694 1.7175 19.7554 1.11304 18.1276C0.516042 16.4998 0.00859526 12.8373 0.00113278 9.9887C-0.0137922 7.14007 0.120534 4.06207 0.299633 3.14459C0.56082 1.79057 1.11304 1.47981 3.2697 1.47981Z" fill="#359AFF"/>
</svg>
